# xmcd CD database file
#
# Track frame offsets:
#	180
#	17136
#	35413
#	54177
#	70489
#	81855
#	97648
#	115357
#	135692
#	151037
#
# Disc length: 2268 seconds
#
# Revision: 0
# Processed by: cddbd v1.4PL0 Copyright (c) Steve Scherf et al.
# Submitted via: CDex 1.50beta10
#
DISCID=7408da0a
DTITLE=Romane - La Pompe
DYEAR=1994
DGENRE=Jazz
TTITLE0=Destinée
TTITLE1=Dream's Memory
TTITLE2=Gypsy Rag
TTITLE3=Vent d'Est
TTITLE4=Anatole
TTITLE5=L'Aveugle
TTITLE6=Couleur Chaude
TTITLE7=Dans Le Regard De Laura
TTITLE8=Swing For Ninine
TTITLE9=Marcel Cazes, "Nationalité Musicien"
EXTD=YEAR: 1994
EXTT0=
EXTT1=
EXTT2=
EXTT3=
EXTT4=
EXTT5=
EXTT6=
EXTT7=
EXTT8=
EXTT9=
PLAYORDER=
